<?xml version="1.0" standalone="no"?>
<!DOCTYPE svg PUBLIC "-//W3C//DTD SVG 20010904//EN"
 "http://www.w3.org/TR/2001/REC-SVG-20010904/DTD/svg10.dtd">
<svg version="1.0" xmlns="http://www.w3.org/2000/svg"
 width="500.000000pt" height="500.000000pt" viewBox="0 0 500.000000 500.000000"
 preserveAspectRatio="xMidYMid meet">

<g transform="translate(0.000000,500.000000) scale(0.100000,-0.100000)"
fill="#000000" stroke="none">
<path d="M3583 3705 c-120 -52 -284 -303 -401 -615 -171 -457 -255 -926 -223
-1250 29 -286 106 -453 246 -530 32 -18 56 -23 125 -23 132 0 223 43 356 166
171 159 395 496 561 844 56 117 61 137 41 150 -20 12 -77 11 -87 -1 -5 -6 -49
-90 -98 -187 -174 -340 -335 -582 -489 -734 -84 -83 -185 -150 -241 -161 -139
-26 -243 113 -288 384 -14 82 -16 141 -12 290 3 103 8 207 12 232 64 463 236
957 426 1223 74 105 132 155 154 137 9 -7 23 -38 31 -68 14 -47 16 -89 11
-247 -6 -201 -28 -371 -88 -662 -17 -84 -29 -160 -26 -168 5 -10 20 -14 54
-12 l48 2 12 50 c42 169 100 531 115 721 19 247 -15 419 -91 458 -37 20 -105
20 -148 1z"/>
<path d="M2669 3632 c-132 -85 -354 -493 -539 -994 -24 -65 -45 -117 -46 -115
-1 1 2 38 8 82 6 44 12 179 12 300 1 309 -19 360 -137 356 -57 -2 -93 -22
-145 -82 -135 -155 -360 -634 -583 -1239 -13 -36 -25 -58 -27 -50 -3 15 125
590 253 1140 89 380 94 480 29 541 -22 21 -35 24 -92 24 -78 -1 -118 -18 -206
-90 -155 -127 -337 -401 -400 -604 -69 -220 -30 -373 114 -446 92 -46 271 -60
278 -21 6 28 -7 35 -87 46 -99 14 -164 50 -199 109 -38 65 -37 181 2 296 61
178 184 372 326 515 87 86 147 127 173 117 20 -8 30 -75 22 -140 -8 -56 -9
-61 -178 -807 -180 -791 -283 -1268 -314 -1464 -17 -107 -17 -108 3 -125 32
-25 83 -21 106 10 11 14 42 104 69 200 96 339 281 866 436 1239 159 385 378
773 420 747 6 -4 17 -40 23 -80 29 -165 -10 -589 -101 -1125 -16 -97 -18 -126
-9 -138 15 -17 84 -19 97 -1 6 6 43 120 83 252 172 569 376 1058 554 1329 66
101 129 172 143 163 22 -14 25 -115 9 -269 -26 -238 -46 -362 -216 -1333 -69
-392 -93 -566 -88 -647 4 -82 17 -97 78 -93 43 2 74 23 96 67 20 38 9 58 -33
58 -32 0 -34 2 -29 28 2 15 8 54 11 87 10 95 59 393 120 725 98 533 114 630
145 841 52 358 51 539 -6 595 -35 36 -115 34 -175 -4z"/>
</g>
</svg>
